<svg xmlns="http://www.w3.org/2000/svg" width="103" height="103" viewBox="0 0 103 103">
  <g id="Group_295" data-name="Group 295" transform="translate(-814 -6031)">
    <path id="noun-plane-2124441" d="M153.4,120.413l-4.421-9.743L124.3,100.282l.47-9.762a6.033,6.033,0,1,0-12.051,0l.47,9.762L88.521,110.67,84.1,120.413l13.675-1.956v2h2.935v-2.426l4.48-.646v2.309h2.935V116.97l5.811-.822.959,19.681c-.02.02-.039.02-.059.039l-8.647,4.969-3.052,7.219,12.306-1.937v.078a3.318,3.318,0,0,0,3.326,3.169h0a3.331,3.331,0,0,0,3.326-3.169v-.078l12.306,1.937-3.052-7.219-8.686-4.95c-.02-.02-.039-.02-.059-.039l.959-19.681,5.811.822v2.719h2.935V117.4l4.48.646v2.426h2.935v-2Zm-64.385-3.658,1.741-3.815,22.616-9.528.47,9.821ZM107.89,144.32l.606-1.428,6.593-3.756.2,4.03Zm10.878,2.093a.388.388,0,0,1-.391-.372l-2.7-55.679a3.115,3.115,0,0,1,5.361-2.289,3.107,3.107,0,0,1,.861,2.289l-2.7,55.679A.474.474,0,0,1,118.767,146.413Zm10.252-3.522.606,1.428-7.4-1.154.2-4.03Zm-4.852-39.5,22.616,9.528,1.741,3.815L123.7,113.194Z" transform="translate(746.9 5965.8)" fill="#dd103d"/>
    <g id="Ellipse_14" data-name="Ellipse 14" transform="translate(814 6031)" fill="none" stroke="#dd103d" stroke-width="2">
      <circle cx="51.5" cy="51.5" r="51.5" stroke="none"/>
      <circle cx="51.5" cy="51.5" r="50.5" fill="none"/>
    </g>
  </g>
</svg>
