<svg xmlns="http://www.w3.org/2000/svg" xmlns:xlink="http://www.w3.org/1999/xlink" width="45.828" height="45.76" viewBox="0 0 45.828 45.76">
  <defs>
    <clipPath id="clip-path">
      <rect id="Rectangle_209" data-name="Rectangle 209" width="45.828" height="45.76" fill="none"/>
    </clipPath>
  </defs>
  <g id="Group_349" data-name="Group 349" transform="translate(0 0)">
    <g id="Group_348" data-name="Group 348" transform="translate(0 0)" clip-path="url(#clip-path)">
      <path id="Path_21284" data-name="Path 21284" d="M55.807,31.362a.665.665,0,0,0,.621-.429,22.754,22.754,0,0,0,1.46-7.313.057.057,0,0,1,0-.011c.009-.254.017-.508.017-.763a22.664,22.664,0,0,0-.435-4.422c0-.009,0-.018-.006-.027a22.745,22.745,0,0,0-1.515-4.76.626.626,0,0,0-.034-.123.637.637,0,0,0-.042-.053,23.015,23.015,0,0,0-2.383-4.072.37.37,0,0,0-.013-.047.645.645,0,0,0-.183-.219,23.2,23.2,0,0,0-3.325-3.567.645.645,0,0,0-.183-.157,23.039,23.039,0,0,0-4.654-3.078.624.624,0,0,0-.1-.053A22.661,22.661,0,0,0,36.7,0a.664.664,0,0,0-.714.663V21.787a.664.664,0,0,0,.384.6L55.527,31.3a.668.668,0,0,0,.28.062M37.318,1.394a21.3,21.3,0,0,1,5.97,1.543l-5.97,3.012Zm0,6.043,7.5-3.786a21.682,21.682,0,0,1,3.416,2.191L37.318,11.35Zm0,5.4L49.342,6.772a21.874,21.874,0,0,1,2.506,2.65l-14.53,7.33Zm0,8.525V18.24l15.34-7.74a21.765,21.765,0,0,1,1.775,3.018l-16.3,8.224Zm2.349,1.093,15.308-7.722a21.365,21.365,0,0,1,1.068,3.374L43.7,24.334Zm5.571,2.592L56.3,19.465a21.381,21.381,0,0,1,.274,3.382c0,.135-.014.268-.017.4l-7.287,3.676Zm5.571,2.591,5.677-2.864a21.4,21.4,0,0,1-1.058,5.014Z" transform="translate(-12.078 0)" fill="#fff"/>
      <path id="Path_21285" data-name="Path 21285" d="M21.705.178A.65.65,0,0,0,21.2,0a22.91,22.91,0,1,0,7.638,44.975.664.664,0,0,0,.456-.86L21.984,23.205c0-.015-.008-.031-.012-.045s-.016-.072-.017-.074a.961.961,0,0,1-.03-.2c0-.022,0-.055-.008-.086V.665a.665.665,0,0,0-.213-.487m6.1,43.691A21.582,21.582,0,1,1,20.589,1.393V22.846a.993.993,0,0,0,.011.123,2.379,2.379,0,0,0,.07.454c0,.013.012.05.019.082a1.108,1.108,0,0,0,.03.108Z" transform="translate(0 0)" fill="#fff"/>
      <path id="Path_21286" data-name="Path 21286" d="M44.226,56.649a.664.664,0,0,0,.532,0,23.148,23.148,0,0,0,10.831-9.813.665.665,0,0,0-.3-.928L38.747,38.213a.664.664,0,0,0-.907.822l6.024,17.224a.662.662,0,0,0,.361.39M54.067,46.8a21.842,21.842,0,0,1-9.19,8.328L39.614,40.081Z" transform="translate(-12.687 -12.804)" fill="#fff"/>
    </g>
  </g>
</svg>
