<svg xmlns="http://www.w3.org/2000/svg" xmlns:xlink="http://www.w3.org/1999/xlink" width="54.867" height="60.763" viewBox="0 0 54.867 60.763">
  <defs>
    <clipPath id="clip-path">
      <rect id="Rectangle_212" data-name="Rectangle 212" width="54.867" height="60.763" fill="none"/>
    </clipPath>
    <clipPath id="clip-path-2">
      <rect id="Rectangle_210" data-name="Rectangle 210" width="35.781" height="35.822" fill="none"/>
    </clipPath>
  </defs>
  <g id="Group_370" data-name="Group 370" transform="translate(-1009 -1136)">
    <g id="Group_368" data-name="Group 368" transform="translate(1009 1136)">
      <g id="Group_367" data-name="Group 367" transform="translate(0 0)" clip-path="url(#clip-path)">
        <path id="Path_21290" data-name="Path 21290" d="M27.434,57.723l-.878-.03L25.5,57.657a9.456,9.456,0,0,1-1.422-.111l-1.761-.239c-.641-.093-1.312-.3-2.042-.459a17.15,17.15,0,0,1-2.277-.7c-.394-.145-.811-.262-1.214-.441l-1.23-.568-.636-.294a4.575,4.575,0,0,1-.633-.328l-1.268-.743-.651-.381-.623-.446-1.272-.92c-.435-.307-.813-.694-1.231-1.044l-.617-.544a5.646,5.646,0,0,1-.6-.576,26.192,26.192,0,0,1-2.255-2.569,26.626,26.626,0,0,1-3.631-6.174q-.33-.859-.663-1.725c-.222-.577-.345-1.188-.522-1.784A29.044,29.044,0,0,1,.213,33.94C.139,33.32.12,32.693.072,32.07L.01,31.133,0,31.016l0-.029v-.059l0-.057.007-.229.012-.456c.025-.612.015-1.209.068-1.829q.109-.94.216-1.873a29.244,29.244,0,0,1,2-6.986A29.993,29.993,0,0,1,5.8,13.64c.329-.433.7-.827,1.035-1.233l.514-.6c.173-.2.365-.369.545-.551l1.077-1.064c.367-.333.749-.635,1.112-.944a27.533,27.533,0,0,1,4.3-2.932,26.7,26.7,0,0,1,3.661-1.672,21.085,21.085,0,0,1,2.472-.8L21.4,3.6l.551,2.514-.81.2a18.786,18.786,0,0,0-2.272.65,24.34,24.34,0,0,0-3.4,1.416,25.285,25.285,0,0,0-4.038,2.563c-.344.274-.707.54-1.056.837l-1.027.951c-.172.164-.357.318-.523.494l-.493.539c-.326.366-.68.719-1,1.112a28.121,28.121,0,0,0-3.435,5.353,27.606,27.606,0,0,0-2.094,6.493L1.555,28.44c-.072.584-.083,1.2-.128,1.807L1.4,30.7l-.014.228,0,.057s0,.05,0,0v.028l0,.111.03.892c.028.594.024,1.192.075,1.785a27.875,27.875,0,0,0,.59,3.524c.152.575.248,1.166.444,1.726s.389,1.119.582,1.676A25.688,25.688,0,0,0,6.417,46.8a25.418,25.418,0,0,0,2.11,2.568,5.306,5.306,0,0,0,.567.581l.585.549c.4.355.753.747,1.168,1.06l1.215.941.6.458.626.394,1.221.77a4.41,4.41,0,0,0,.612.345l.616.309,1.194.6c.392.19.8.318,1.184.475a16.98,16.98,0,0,0,2.229.767c.718.183,1.379.41,2.01.522l1.74.3a9.445,9.445,0,0,0,1.416.157l1.052.071.876.059" transform="translate(0 -0.668)" fill="#fff"/>
        <path id="Path_21291" data-name="Path 21291" d="M20.764,9.585l3.71-5.232L19.241.647,23.036,0l5.231,3.708L24.559,8.939Z" transform="translate(-3.568 0)" fill="#fff"/>
        <path id="Path_21292" data-name="Path 21292" d="M33.68,4.552l.878.03,1.054.036a9.457,9.457,0,0,1,1.422.111l1.761.239c.641.093,1.312.3,2.042.459a17.15,17.15,0,0,1,2.277.7c.394.145.811.262,1.214.441l1.231.568.635.294a4.574,4.574,0,0,1,.633.328L48.1,8.5l.651.381.623.446,1.272.92c.435.307.813.694,1.231,1.044l.617.544a5.569,5.569,0,0,1,.6.576,26.192,26.192,0,0,1,2.255,2.569,26.627,26.627,0,0,1,3.631,6.174q.33.859.663,1.725c.222.577.345,1.188.522,1.784a28.9,28.9,0,0,1,.737,3.669c.075.621.094,1.247.142,1.87l.062.937.008.117,0,.029v.059l0,.057-.007.229-.012.456c-.025.612-.015,1.209-.068,1.829q-.109.94-.216,1.873a29.206,29.206,0,0,1-2,6.986,29.994,29.994,0,0,1-3.493,5.858c-.329.433-.7.827-1.035,1.233l-.514.6c-.173.2-.365.369-.545.551l-1.077,1.064c-.367.333-.749.635-1.112.944a27.566,27.566,0,0,1-4.3,2.932,26.746,26.746,0,0,1-3.662,1.672,21.086,21.086,0,0,1-2.472.8l-.887.248-.551-2.514.81-.2a18.788,18.788,0,0,0,2.272-.65,24.34,24.34,0,0,0,3.4-1.416,25.284,25.284,0,0,0,4.038-2.563c.344-.275.707-.54,1.056-.837l1.027-.951c.172-.164.357-.318.523-.494l.493-.539c.326-.366.68-.719,1-1.112a28.158,28.158,0,0,0,3.434-5.353A27.606,27.606,0,0,0,59.3,35.552l.258-1.716c.072-.584.083-1.2.128-1.807l.028-.456.014-.228,0-.057s0-.05,0,0v-.028l0-.111-.03-.892c-.028-.594-.024-1.192-.075-1.785a27.876,27.876,0,0,0-.59-3.524c-.152-.575-.248-1.166-.443-1.726s-.389-1.119-.582-1.676A25.687,25.687,0,0,0,54.7,15.473a25.418,25.418,0,0,0-2.11-2.568,5.307,5.307,0,0,0-.567-.581l-.585-.549c-.4-.355-.753-.747-1.168-1.06l-1.215-.941-.6-.458-.626-.394-1.222-.77A4.41,4.41,0,0,0,46,7.808L45.381,7.5l-1.194-.6c-.392-.19-.8-.318-1.184-.475a16.979,16.979,0,0,0-2.229-.767c-.718-.183-1.379-.41-2.01-.522l-1.74-.295a9.35,9.35,0,0,0-1.416-.158l-1.052-.071-.876-.059" transform="translate(-6.246 -0.844)" fill="#fff"/>
        <path id="Path_21293" data-name="Path 21293" d="M44.54,62.83l-3.71,5.232,5.233,3.707-3.795.647-5.231-3.708,3.708-5.231Z" transform="translate(-6.869 -11.653)" fill="#fff"/>
      </g>
    </g>
    <g id="Group_369" data-name="Group 369" transform="translate(1018.542 1145.815)">
      <g id="Group_352" data-name="Group 352" clip-path="url(#clip-path-2)">
        <path id="Path_21287" data-name="Path 21287" d="M36.394,26.678v-3.93L21.7,14.26v-9.3H21.68a2.988,2.988,0,0,0-.289-1.178H21.4l-.79-1.515a2.072,2.072,0,0,0-3.823,0L16,3.786a2.988,2.988,0,0,0-.289,1.178H15.7v9.3L1,22.749v3.928l14.7-5.035a40.429,40.429,0,0,0,1.038,8.766L11.2,34.59v1.8l6.565-1.437.122.626a.812.812,0,1,0,1.625,0l.12-.618,6.842,1.431v-1.8L20.662,30.4A32.518,32.518,0,0,0,21.7,21.633Z" transform="translate(-0.806 -0.806)" fill="none" stroke="#fff" stroke-miterlimit="10" stroke-width="2"/>
      </g>
    </g>
  </g>
</svg>
