<svg id="Group_183" data-name="Group 183" xmlns="http://www.w3.org/2000/svg" xmlns:xlink="http://www.w3.org/1999/xlink" width="32.594" height="26.517" viewBox="0 0 32.594 26.517">
  <defs>
    <clipPath id="clip-path">
      <rect id="Rectangle_159" data-name="Rectangle 159" width="32.594" height="26.517" fill="#09225a"/>
    </clipPath>
  </defs>
  <g id="Group_182" data-name="Group 182" clip-path="url(#clip-path)">
    <path id="Path_20877" data-name="Path 20877" d="M29.279,4.419H21.545V2.762A2.763,2.763,0,0,0,18.783,0H13.811a2.763,2.763,0,0,0-2.762,2.763V4.419H3.314A3.315,3.315,0,0,0,0,7.733V23.2a3.315,3.315,0,0,0,3.314,3.314H29.279A3.315,3.315,0,0,0,32.594,23.2V7.733a3.315,3.315,0,0,0-3.315-3.314m-17.954,1.1a.57.57,0,0,0,.138-.027.569.569,0,0,0,.138.027H23.755V25.411H8.839V5.524Zm.829-2.762A1.657,1.657,0,0,1,13.811,1.1h4.972A1.657,1.657,0,0,1,20.44,2.762V4.419H12.154ZM1.1,23.2V7.733a2.21,2.21,0,0,1,2.21-2.21H4.972V25.411H3.314A2.21,2.21,0,0,1,1.1,23.2M6.077,5.524H7.734V25.411H6.077Zm18.783,0h1.657V25.411H24.86ZM31.489,23.2a2.21,2.21,0,0,1-2.21,2.21H27.622V5.524h1.657a2.21,2.21,0,0,1,2.21,2.21Z" transform="translate(0 0.001)" fill="#09225a"/>
  </g>
</svg>
