<svg xmlns="http://www.w3.org/2000/svg" xmlns:xlink="http://www.w3.org/1999/xlink" width="54.586" height="26.549" viewBox="0 0 54.586 26.549">
  <defs>
    <clipPath id="clip-path">
      <rect id="Rectangle_158" data-name="Rectangle 158" width="23.925" height="26.549" transform="translate(0 0)" fill="#09225a"/>
    </clipPath>
  </defs>
  <g id="Group_716" data-name="Group 716" transform="translate(-1.658 -31.489)">
    <g id="Group_180" data-name="Group 180" transform="translate(1.658 31.489)">
      <g id="Group_179" data-name="Group 179" transform="translate(0 0)" clip-path="url(#clip-path)">
        <path id="Path_20873" data-name="Path 20873" d="M182.385,14.233c3.287,0,5.686-3.6,5.284-6.486a2.923,2.923,0,0,0,.679-1.787,2.791,2.791,0,0,0,1.631-2.32C189.984,1.277,186.069,0,182.385,0s-7.6,1.28-7.6,3.648a2.784,2.784,0,0,0,1.631,2.315,2.9,2.9,0,0,0,.685,1.787c-.282,2.749,1.756,6.381,5.284,6.486m-3.7-5.242a8.188,8.188,0,0,0,3.7.82,8.24,8.24,0,0,0,3.7-.82,3.7,3.7,0,1,1-7.4,0m3.7-.653a5.259,5.259,0,0,1-4.212-1.625,14.838,14.838,0,0,0,4.212.585,14.8,14.8,0,0,0,4.207-.585,5.239,5.239,0,0,1-4.207,1.625m0-6.867c3.737,0,6.12,1.291,6.12,2.174s-2.383,2.174-6.12,2.174-6.12-1.291-6.12-2.174,2.383-2.174,6.12-2.174" transform="translate(-170.422 0.003)" fill="#09225a"/>
        <path id="Path_20874" data-name="Path 20874" d="M429.881,91.242A2.449,2.449,0,0,0,431.141,89a6.346,6.346,0,0,1-1.259-.669,6.2,6.2,0,0,1-1.26.669,2.445,2.445,0,0,0,1.26,2.242" transform="translate(-417.919 -86.126)" fill="#09225a"/>
        <path id="Path_20875" data-name="Path 20875" d="M15.26,608.793a.736.736,0,0,0-.847.382l-2.456,4.855L9.5,609.175a.739.739,0,0,0-.847-.382A11.215,11.215,0,0,0,0,619.382a.736.736,0,0,0,.737.737H23.189a.736.736,0,0,0,.737-.737,11.213,11.213,0,0,0-8.665-10.588M1.505,618.645a9.775,9.775,0,0,1,6.961-8.257L11.3,616a.739.739,0,0,0,1.317,0l2.838-5.613a9.775,9.775,0,0,1,6.961,8.257Z" transform="translate(0 -593.569)" fill="#09225a"/>
        <path id="Path_20876" data-name="Path 20876" d="M595.677,852.362h-3.183a.737.737,0,1,0,0,1.474h3.183a.737.737,0,1,0,0-1.474" transform="translate(-576.983 -831.081)" fill="#09225a"/>
      </g>
    </g>
    <g id="Group_181" data-name="Group 181" transform="translate(32.318 31.489)">
      <g id="Group_179-2" data-name="Group 179" transform="translate(0 0)" clip-path="url(#clip-path)">
        <path id="Path_20873-2" data-name="Path 20873" d="M182.385,14.233c3.287,0,5.686-3.6,5.284-6.486a2.923,2.923,0,0,0,.679-1.787,2.791,2.791,0,0,0,1.631-2.32C189.984,1.277,186.069,0,182.385,0s-7.6,1.28-7.6,3.648a2.784,2.784,0,0,0,1.631,2.315,2.9,2.9,0,0,0,.685,1.787c-.282,2.749,1.756,6.381,5.284,6.486m-3.7-5.242a8.188,8.188,0,0,0,3.7.82,8.24,8.24,0,0,0,3.7-.82,3.7,3.7,0,1,1-7.4,0m3.7-.653a5.259,5.259,0,0,1-4.212-1.625,14.838,14.838,0,0,0,4.212.585,14.8,14.8,0,0,0,4.207-.585,5.239,5.239,0,0,1-4.207,1.625m0-6.867c3.737,0,6.12,1.291,6.12,2.174s-2.383,2.174-6.12,2.174-6.12-1.291-6.12-2.174,2.383-2.174,6.12-2.174" transform="translate(-170.422 0.003)" fill="#09225a"/>
        <path id="Path_20874-2" data-name="Path 20874" d="M429.881,91.242A2.449,2.449,0,0,0,431.141,89a6.346,6.346,0,0,1-1.259-.669,6.2,6.2,0,0,1-1.26.669,2.445,2.445,0,0,0,1.26,2.242" transform="translate(-417.919 -86.126)" fill="#09225a"/>
        <path id="Path_20875-2" data-name="Path 20875" d="M15.26,608.793a.736.736,0,0,0-.847.382l-2.456,4.855L9.5,609.175a.739.739,0,0,0-.847-.382A11.215,11.215,0,0,0,0,619.382a.736.736,0,0,0,.737.737H23.189a.736.736,0,0,0,.737-.737,11.213,11.213,0,0,0-8.665-10.588M1.505,618.645a9.775,9.775,0,0,1,6.961-8.257L11.3,616a.739.739,0,0,0,1.317,0l2.838-5.613a9.775,9.775,0,0,1,6.961,8.257Z" transform="translate(0 -593.569)" fill="#09225a"/>
        <path id="Path_20876-2" data-name="Path 20876" d="M595.677,852.362h-3.183a.737.737,0,1,0,0,1.474h3.183a.737.737,0,1,0,0-1.474" transform="translate(-576.983 -831.081)" fill="#09225a"/>
      </g>
    </g>
  </g>
</svg>
