<svg id="Group_185" data-name="Group 185" xmlns="http://www.w3.org/2000/svg" xmlns:xlink="http://www.w3.org/1999/xlink" width="47.796" height="27.551" viewBox="0 0 47.796 27.551">
  <defs>
    <clipPath id="clip-path">
      <rect id="Rectangle_160" data-name="Rectangle 160" width="47.796" height="27.551" fill="#09225a"/>
    </clipPath>
  </defs>
  <g id="Group_184" data-name="Group 184" clip-path="url(#clip-path)">
    <path id="Path_20878" data-name="Path 20878" d="M4.342,106.626H43.454a4.582,4.582,0,0,1,1.658.336,4.386,4.386,0,0,1,1.408.954l.133.133a4.474,4.474,0,0,1,.782,1.564,8.509,8.509,0,0,1,.36,2.269v.469H44.956v-.469a7.265,7.265,0,0,0-.18-1.353,2.064,2.064,0,0,0-.227-.618l-.047-.047a1.243,1.243,0,0,0-.493-.313,1.22,1.22,0,0,0-.555-.133H4.342a1.312,1.312,0,0,0-.579.133,1.421,1.421,0,0,0-.493.313,1.66,1.66,0,0,0-.243.665,5.97,5.97,0,0,0-.188,1.353v.469H0v-.469a8.518,8.518,0,0,1,.383-2.308,4.3,4.3,0,0,1,.892-1.682,4.483,4.483,0,0,1,1.431-.954,4.579,4.579,0,0,1,1.635-.313m39.113.954H4.342a3.554,3.554,0,0,0-1.3.243,3.207,3.207,0,0,0-1.119.782,2.986,2.986,0,0,0-.649,1.307,8.206,8.206,0,0,0-.337,1.564H1.9a10.208,10.208,0,0,1,.227-1.158,2.449,2.449,0,0,1,.493-1.111,2.541,2.541,0,0,1,.782-.532,2.626,2.626,0,0,1,.939-.18H43.454a2.348,2.348,0,0,1,.939.2,1.957,1.957,0,0,1,.422.219v-.047l.336.336a2.449,2.449,0,0,1,.54,1.111,6.454,6.454,0,0,1,.18,1.087h.962a8.1,8.1,0,0,0-.313-1.564,3.256,3.256,0,0,0-.673-1.307l-.086-.11a3.689,3.689,0,0,0-1.009-.641,3.633,3.633,0,0,0-1.3-.211Z" transform="translate(0 -84.801)" fill="#09225a"/>
    <path id="Path_20879" data-name="Path 20879" d="M34.433,99.086v-2.55h2.972v3.019H34.433Zm.939-1.564v1.111h1.1V97.49Z" transform="translate(-27.385 -76.776)" fill="#09225a"/>
    <path id="Path_20880" data-name="Path 20880" d="M183.135,99.086v-2.55h2.972v3.019h-2.972Zm.939-1.564v1.111h1.072V97.49Z" transform="translate(-145.649 -76.776)" fill="#09225a"/>
    <path id="Path_20881" data-name="Path 20881" d="M90.114,15.966H99.5V2.355a1.408,1.408,0,0,0-.422-1A1.439,1.439,0,0,0,98.07.931H91.53a1.563,1.563,0,0,0-1.009.422,1.5,1.5,0,0,0-.407,1Zm9.872.946H89.16V2.355a2.393,2.393,0,0,1,.7-1.666A2.44,2.44,0,0,1,91.53,0h6.555a2.347,2.347,0,0,1,2.347,2.347V16.912Z" transform="translate(-70.91)" fill="#09225a"/>
    <path id="Path_20882" data-name="Path 20882" d="M154.365,15.966h9.387V2.354a1.408,1.408,0,0,0-.422-1,1.439,1.439,0,0,0-1-.422H155.8a1.564,1.564,0,0,0-1.032.422,1.478,1.478,0,0,0-.4,1Zm9.864.946H153.4V2.354a2.347,2.347,0,0,1,.712-1.666A2.394,2.394,0,0,1,155.789,0h6.54A2.347,2.347,0,0,1,164,.688a2.346,2.346,0,0,1,.712,1.666V16.912Z" transform="translate(-122.003 0)" fill="#09225a"/>
    <path id="Path_20883" data-name="Path 20883" d="M26.277,15.966h9.387V2.355a1.407,1.407,0,0,0-.422-1A1.439,1.439,0,0,0,34.232.931H27.708a1.563,1.563,0,0,0-1.009.422,1.5,1.5,0,0,0-.422,1Zm9.888.946H25.338V2.355a2.394,2.394,0,0,1,.72-1.666A2.44,2.44,0,0,1,27.732,0h6.555a2.347,2.347,0,0,1,2.347,2.347V16.912Z" transform="translate(-20.152)" fill="#09225a"/>
    <path id="Path_20884" data-name="Path 20884" d="M1.547,78.315H48.42v2.347a2.35,2.35,0,0,1-2.347,2.347H3.425A2.364,2.364,0,0,1,1.07,80.654V78.307Zm45.942.931H2.064v1.4a1.439,1.439,0,0,0,.4,1,1.408,1.408,0,0,0,.986.4H46.073a1.409,1.409,0,0,0,.986-.4,1.37,1.37,0,0,0,.422-1Z" transform="translate(-0.851 -62.279)" fill="#09225a"/>
  </g>
</svg>
